General
Unique ID                                : 307502202998028088123907185219818403936 (0xE756C5236E82564A2D70D48D24CEB860)
Complete name                            : Southern All Stars - Yume no Uchuu Ryokou [WEB-DL 1080p AAC x264-SEKAI].mkv
Format                                   : Matroska
Format version                           : Version 4
File size                                : 369 MiB
Duration                                 : 5 min 6 s
Overall bit rate                         : 10.1 Mb/s
Frame rate                               : 23.976 FPS
Title                                    : Southern All Stars - Yume no Uchuu Ryokou [WEB-DL 1080p AAC x264-SEKAI]
Encoded date                             : 2025-08-14 06:33:58 UTC
Writing application                      : mkvmerge 94.0 ('Initiate') 64-bit
Writing library                          : libebml v1.4.5 + libmatroska v1.7.1
Website                                  : https://sekai-archivist.blogspot.com/

Video
ID                                       : 1
Format                                   : AVC
Format/Info                              : Advanced Video Codec
Format profile                           : High@L4
Format settings                          : CABAC / 5 Ref Frames
Format settings, CABAC                   : Yes
Format settings, Reference frames        : 5 frames
Format settings, Slice count             : 8 slices per frame
Codec ID                                 : V_MPEG4/ISO/AVC
Duration                                 : 5 min 6 s
Bit rate                                 : 9 816 kb/s
Width                                    : 1 440 pixels
Height                                   : 1 080 pixels
Display aspect ratio                     : 4:3
Frame rate mode                          : Constant
Frame rate                               : 23.976 (24000/1001) FPS
Color space                              : YUV
Chroma subsampling                       : 4:2:0 (Type 2)
Bit depth                                : 8 bits
Scan type                                : Progressive
Bits/(Pixel*Frame)                       : 0.263
Stream size                              : 359 MiB (97%)
Language                                 : Japanese
Default                                  : Yes
Forced                                   : No
Color range                              : Limited
Color primaries                          : BT.709
Transfer characteristics                 : BT.709
Matrix coefficients                      : BT.709

Audio
ID                                       : 2
Format                                   : AAC LC
Format/Info                              : Advanced Audio Codec Low Complexity
Codec ID                                 : A_AAC-2
Duration                                 : 5 min 6 s
Bit rate                                 : 273 kb/s
Channel(s)                               : 2 channels
Channel layout                           : L R
Sampling rate                            : 48.0 kHz
Frame rate                               : 46.875 FPS (1024 SPF)
Compression mode                         : Lossy
Stream size                              : 9.98 MiB (3%)
Language                                 : Japanese
Default                                  : Yes
Forced                                   : No


